<svg version="1.1" xmlns="http://www.w3.org/2000/svg" xmlns:xlink="http://www.w3.org/1999/xlink" width="922" height="703"><defs><clipPath id="tifonPtJBBfz"><path fill="none" stroke="none" d=" M 0 0 L 922 0 L 922 703 L 0 703 L 0 0 Z"/></clipPath></defs><g transform="scale(1,1)" clip-path="url(#tifonPtJBBfz)"><g><rect fill="rgb(255,255,255)" stroke="none" x="0" y="0" width="922" height="703" fill-opacity="1"/><path fill="none" stroke="rgb(0,0,255)" paint-order="fill stroke markers" d=" M 244.83072572614608 618.9672409635302 L 634.3098257180181 618.9672409635302 L 754.6654865693661 248.5506049554889 L 439.5702757220822 19.620533904120975 L 124.47506487479819 248.55060495548872 Z" stroke-opacity="0.6980392156862745" stroke-linecap="round" stroke-linejoin="round" stroke-miterlimit="10" stroke-width="2.5"/><path fill="rgb(255,0,0)" stroke="none" paint-order="stroke fill markers" fill-rule="evenodd" d=" M 439.5702757220822 19.620533904120975 L 244.83072572614608 618.9672409635302 L 754.6654865693661 248.5506049554889 L 124.47506487479819 248.55060495548872 L 634.3098257180181 618.9672409635302 Z" fill-opacity="1"/><path fill="rgb(0,0,255)" stroke="none" paint-order="stroke fill markers" fill-rule="evenodd" d=" M 439.5702757220822 477.4806760068566 L 513.9541648666703 248.55060495548895 L 319.21461487073424 390.0371699121624 L 559.9259365734301 390.0371699121624 L 365.18638657749403 248.55060495548884 Z" fill-opacity="1"/><path fill="rgb(255,0,0)" stroke="none" paint-order="stroke fill markers" fill-rule="evenodd" d=" M 439.5702757220822 302.5936638174684 L 411.1581582842539 390.0371699121624 L 485.542047428842 335.99411105018294 L 393.5985040153224 335.99411105018294 L 467.98239315991054 390.0371699121624 Z" fill-opacity="1"/><path fill="none" stroke="rgb(0,0,255)" paint-order="fill stroke markers" d=" M 244.83072572614608 618.9672409635302 L 634.3098257180181 618.9672409635302" stroke-opacity="0.6980392156862745" stroke-linecap="round" stroke-linejoin="round" stroke-miterlimit="10" stroke-width="2.5"/><path fill="none" stroke="rgb(0,0,255)" paint-order="fill stroke markers" d=" M 634.3098257180181 618.9672409635302 L 754.6654865693661 248.5506049554889" stroke-opacity="0.6980392156862745" stroke-linecap="round" stroke-linejoin="round" stroke-miterlimit="10" stroke-width="2.5"/><path fill="none" stroke="rgb(0,0,255)" paint-order="fill stroke markers" d=" M 754.6654865693661 248.5506049554889 L 439.5702757220822 19.620533904120975" stroke-opacity="0.6980392156862745" stroke-linecap="round" stroke-linejoin="round" stroke-miterlimit="10" stroke-width="2.5"/><path fill="none" stroke="rgb(0,0,255)" paint-order="fill stroke markers" d=" M 439.5702757220822 19.620533904120975 L 124.47506487479819 248.55060495548872" stroke-opacity="0.6980392156862745" stroke-linecap="round" stroke-linejoin="round" stroke-miterlimit="10" stroke-width="2.5"/><path fill="none" stroke="rgb(0,0,255)" paint-order="fill stroke markers" d=" M 124.47506487479819 248.55060495548872 L 244.83072572614608 618.9672409635302" stroke-opacity="0.6980392156862745" stroke-linecap="round" stroke-linejoin="round" stroke-miterlimit="10" stroke-width="2.5"/><path fill="none" stroke="rgb(255,0,0)" paint-order="fill stroke markers" d=" M 439.5702757220822 19.620533904120975 L 244.83072572614608 618.9672409635302" stroke-opacity="0.6980392156862745" stroke-linecap="round" stroke-linejoin="round" stroke-miterlimit="10" stroke-width="2.5"/><path fill="none" stroke="rgb(255,0,0)" paint-order="fill stroke markers" d=" M 244.83072572614608 618.9672409635302 L 754.6654865693661 248.5506049554889" stroke-opacity="0.6980392156862745" stroke-linecap="round" stroke-linejoin="round" stroke-miterlimit="10" stroke-width="2.5"/><path fill="none" stroke="rgb(255,0,0)" paint-order="fill stroke markers" d=" M 754.6654865693661 248.5506049554889 L 124.47506487479819 248.55060495548872" stroke-opacity="0.6980392156862745" stroke-linecap="round" stroke-linejoin="round" stroke-miterlimit="10" stroke-width="2.5"/><path fill="none" stroke="rgb(255,0,0)" paint-order="fill stroke markers" d=" M 124.47506487479819 248.55060495548872 L 634.3098257180181 618.9672409635302" stroke-opacity="0.6980392156862745" stroke-linecap="round" stroke-linejoin="round" stroke-miterlimit="10" stroke-width="2.5"/><path fill="none" stroke="rgb(255,0,0)" paint-order="fill stroke markers" d=" M 634.3098257180181 618.9672409635302 L 439.5702757220822 19.620533904120975" stroke-opacity="0.6980392156862745" stroke-linecap="round" stroke-linejoin="round" stroke-miterlimit="10" stroke-width="2.5"/><path fill="none" stroke="rgb(0,0,255)" paint-order="fill stroke markers" d=" M 439.5702757220822 477.4806760068566 L 513.9541648666703 248.55060495548895" stroke-opacity="0.6980392156862745" stroke-linecap="round" stroke-linejoin="round" stroke-miterlimit="10" stroke-width="2.5"/><path fill="none" stroke="rgb(0,0,255)" paint-order="fill stroke markers" d=" M 513.9541648666703 248.55060495548895 L 319.21461487073424 390.0371699121624" stroke-opacity="0.6980392156862745" stroke-linecap="round" stroke-linejoin="round" stroke-miterlimit="10" stroke-width="2.5"/><path fill="none" stroke="rgb(0,0,255)" paint-order="fill stroke markers" d=" M 319.21461487073424 390.0371699121624 L 559.9259365734301 390.0371699121624" stroke-opacity="0.6980392156862745" stroke-linecap="round" stroke-linejoin="round" stroke-miterlimit="10" stroke-width="2.5"/><path fill="none" stroke="rgb(0,0,255)" paint-order="fill stroke markers" d=" M 559.9259365734301 390.0371699121624 L 365.18638657749403 248.55060495548884" stroke-opacity="0.6980392156862745" stroke-linecap="round" stroke-linejoin="round" stroke-miterlimit="10" stroke-width="2.5"/><path fill="none" stroke="rgb(0,0,255)" paint-order="fill stroke markers" d=" M 365.18638657749403 248.55060495548884 L 439.5702757220822 477.4806760068566" stroke-opacity="0.6980392156862745" stroke-linecap="round" stroke-linejoin="round" stroke-miterlimit="10" stroke-width="2.5"/><path fill="none" stroke="rgb(255,0,0)" paint-order="fill stroke markers" d=" M 439.5702757220822 302.5936638174684 L 411.1581582842539 390.0371699121624" stroke-opacity="0.6980392156862745" stroke-linecap="round" stroke-linejoin="round" stroke-miterlimit="10" stroke-width="2.5"/><path fill="none" stroke="rgb(255,0,0)" paint-order="fill stroke markers" d=" M 411.1581582842539 390.0371699121624 L 485.542047428842 335.99411105018294" stroke-opacity="0.6980392156862745" stroke-linecap="round" stroke-linejoin="round" stroke-miterlimit="10" stroke-width="2.5"/><path fill="none" stroke="rgb(255,0,0)" paint-order="fill stroke markers" d=" M 485.542047428842 335.99411105018294 L 393.5985040153224 335.99411105018294" stroke-opacity="0.6980392156862745" stroke-linecap="round" stroke-linejoin="round" stroke-miterlimit="10" stroke-width="2.5"/><path fill="none" stroke="rgb(255,0,0)" paint-order="fill stroke markers" d=" M 393.5985040153224 335.99411105018294 L 467.98239315991054 390.0371699121624" stroke-opacity="0.6980392156862745" stroke-linecap="round" stroke-linejoin="round" stroke-miterlimit="10" stroke-width="2.5"/><path fill="none" stroke="rgb(255,0,0)" paint-order="fill stroke markers" d=" M 467.98239315991054 390.0371699121624 L 439.5702757220822 302.5936638174684" stroke-opacity="0.6980392156862745" stroke-linecap="round" stroke-linejoin="round" stroke-miterlimit="10" stroke-width="2.5"/><path fill="none" stroke="rgb(0,0,0)" paint-order="fill stroke markers" d=" M 43.5 48.5 L 243.5 48.5" stroke-opacity="0.39215686274509803" stroke-linecap="round" stroke-linejoin="round" stroke-miterlimit="10" stroke-width="5"/><path fill="rgb(0,0,0)" stroke="none" paint-order="stroke fill markers" d=" M 230.6 48.5 C 230.6 53.19442037356174 226.79442037356174 57 222.1 57 C 217.40557962643825 57 213.6 53.19442037356174 213.6 48.5 C 213.6 43.80557962643826 217.40557962643825 40 222.1 40 C 226.79442037356174 40 230.6 43.80557962643826 230.6 48.5 Z" fill-opacity="0.39215686274509803"/><path fill="none" stroke="rgb(0,0,0)" paint-order="fill stroke markers" d=" M 230.6 48.5 C 230.6 53.19442037356174 226.79442037356174 57 222.1 57 C 217.40557962643825 57 213.6 53.19442037356174 213.6 48.5 C 213.6 43.80557962643826 217.40557962643825 40 222.1 40 C 226.79442037356174 40 230.6 43.80557962643826 230.6 48.5 Z" stroke-opacity="0.39215686274509803" stroke-linecap="round" stroke-linejoin="round" stroke-miterlimit="10"/><path fill="rgb(0,0,0)" stroke="none" paint-order="stroke fill markers" d=" M 227.6 48.5 C 227.6 51.537566124069365 225.13756612406937 54 222.1 54 C 219.06243387593062 54 216.6 51.537566124069365 216.6 48.5 C 216.6 45.462433875930635 219.06243387593062 43 222.1 43 C 225.13756612406937 43 227.6 45.462433875930635 227.6 48.5 Z" fill-opacity="1"/><path fill="none" stroke="rgb(0,0,0)" paint-order="fill stroke markers" d=" M 227.6 48.5 C 227.6 51.537566124069365 225.13756612406937 54 222.1 54 C 219.06243387593062 54 216.6 51.537566124069365 216.6 48.5 C 216.6 45.462433875930635 219.06243387593062 43 222.1 43 C 225.13756612406937 43 227.6 45.462433875930635 227.6 48.5 Z" stroke-opacity="1" stroke-linecap="round" stroke-linejoin="round" stroke-miterlimit="10"/><text fill="rgb(0,0,0)" stroke="none" font-family="geogebra-sans-serif, sans-serif" font-size="16px" font-style="normal" font-weight="normal" text-decoration="normal" x="211" y="33" text-anchor="start" dominant-baseline="alphabetic" fill-opacity="1">n = 8.93</text><text fill="none" stroke="rgb(255,255,255)" font-family="geogebra-sans-serif, sans-serif" font-size="16px" font-style="normal" font-weight="normal" text-decoration="normal" x="211" y="33" text-anchor="start" dominant-baseline="alphabetic" stroke-opacity="1" stroke-linejoin="bevel" stroke-miterlimit="10" stroke-width="3">n = 8.93</text><text fill="rgb(0,0,0)" stroke="none" font-family="geogebra-sans-serif, sans-serif" font-size="16px" font-style="normal" font-weight="normal" text-decoration="normal" x="211" y="33" text-anchor="start" dominant-baseline="alphabetic" fill-opacity="1">n = 8.93</text></g></g></svg>